<svg xmlns="http://www.w3.org/2000/svg" xmlns:xlink="http://www.w3.org/1999/xlink" width="1080" zoomAndPan="magnify" viewBox="0 0 810 809.999993" height="1080" preserveAspectRatio="xMidYMid meet" version="1.0"><defs><g/><clipPath id="3fb1ce75e0"><path d="M 229.683594 120.308594 L 580.539062 120.308594 L 580.539062 264.25 L 229.683594 264.25 Z M 229.683594 120.308594 " clip-rule="nonzero"/></clipPath><clipPath id="360f5d18ef"><path d="M 290.433594 120.308594 L 519.566406 120.308594 L 580.316406 264.25 L 229.683594 264.25 Z M 290.433594 120.308594 " clip-rule="nonzero"/></clipPath><clipPath id="05716006f6"><path d="M 98.707031 167.265625 L 182.3125 167.265625 L 182.3125 212.792969 L 98.707031 212.792969 Z M 98.707031 167.265625 " clip-rule="nonzero"/></clipPath><clipPath id="e4b5a72de8"><path d="M 22.5 191.527344 L 787.5 191.527344 L 787.5 701.527344 L 22.5 701.527344 Z M 22.5 191.527344 " clip-rule="nonzero"/></clipPath><clipPath id="86f8184cea"><path d="M 60.75 191.527344 L 749.25 191.527344 C 759.394531 191.527344 769.125 195.558594 776.296875 202.730469 C 783.46875 209.90625 787.5 219.632812 787.5 229.777344 L 787.5 663.277344 C 787.5 673.421875 783.46875 683.152344 776.296875 690.324219 C 769.125 697.5 759.394531 701.527344 749.25 701.527344 L 60.75 701.527344 C 50.605469 701.527344 40.875 697.5 33.703125 690.324219 C 26.53125 683.152344 22.5 673.421875 22.5 663.277344 L 22.5 229.777344 C 22.5 219.632812 26.53125 209.90625 33.703125 202.730469 C 40.875 195.558594 50.605469 191.527344 60.75 191.527344 Z M 60.75 191.527344 " clip-rule="nonzero"/></clipPath><clipPath id="037009e333"><path d="M 60 229.027344 L 750 229.027344 L 750 664.027344 L 60 664.027344 Z M 60 229.027344 " clip-rule="nonzero"/></clipPath><clipPath id="55911e8aea"><path d="M 98.25 229.027344 L 711.75 229.027344 C 721.894531 229.027344 731.625 233.058594 738.796875 240.230469 C 745.96875 247.40625 750 257.132812 750 267.277344 L 750 625.777344 C 750 635.921875 745.96875 645.652344 738.796875 652.824219 C 731.625 660 721.894531 664.027344 711.75 664.027344 L 98.25 664.027344 C 88.105469 664.027344 78.375 660 71.203125 652.824219 C 64.03125 645.652344 60 635.921875 60 625.777344 L 60 267.277344 C 60 257.132812 64.03125 247.40625 71.203125 240.230469 C 78.375 233.058594 88.105469 229.027344 98.25 229.027344 Z M 98.25 229.027344 " clip-rule="nonzero"/></clipPath><clipPath id="983196f46e"><path d="M 632.949219 256.777344 L 715.683594 256.777344 L 715.683594 283.722656 L 632.949219 283.722656 Z M 632.949219 256.777344 " clip-rule="nonzero"/></clipPath><clipPath id="a4d12f5cd8"><path d="M 694.960938 256.777344 C 706.378906 256.777344 715.632812 262.808594 715.632812 270.25 C 715.632812 277.691406 706.378906 283.722656 694.960938 283.722656 L 653.621094 283.722656 C 642.203125 283.722656 632.949219 277.691406 632.949219 270.25 C 632.949219 262.808594 642.203125 256.777344 653.621094 256.777344 Z M 694.960938 256.777344 " clip-rule="nonzero"/></clipPath><clipPath id="dacfd263cc"><path d="M 0 351 L 810 351 L 810 541.683594 L 0 541.683594 Z M 0 351 " clip-rule="nonzero"/></clipPath><clipPath id="346db6d6ab"><path d="M -91.660156 351.371094 L 839.742188 351.371094 C 849.886719 351.371094 859.617188 355.402344 866.789062 362.574219 C 873.964844 369.75 877.992188 379.476562 877.992188 389.621094 L 877.992188 503.433594 C 877.992188 513.578125 873.964844 523.308594 866.789062 530.480469 C 859.617188 537.65625 849.886719 541.683594 839.742188 541.683594 L -91.660156 541.683594 C -101.804688 541.683594 -111.53125 537.65625 -118.707031 530.480469 C -125.878906 523.308594 -129.910156 513.578125 -129.910156 503.433594 L -129.910156 389.621094 C -129.910156 379.476562 -125.878906 369.75 -118.707031 362.574219 C -111.53125 355.402344 -101.804688 351.371094 -91.660156 351.371094 Z M -91.660156 351.371094 " clip-rule="nonzero"/></clipPath><clipPath id="c8d3bf64bd"><path d="M 265 310 L 481.5625 310 L 481.5625 473 L 265 473 Z M 265 310 " clip-rule="nonzero"/></clipPath><clipPath id="59b5d0699e"><path d="M 192.8125 287 L 479 287 L 479 572.667969 L 192.8125 572.667969 Z M 192.8125 287 " clip-rule="nonzero"/></clipPath></defs><g clip-path="url(#3fb1ce75e0)"><g clip-path="url(#360f5d18ef)"><path fill="#ffffff" d="M 229.683594 120.308594 L 580.539062 120.308594 L 580.539062 264.25 L 229.683594 264.25 Z M 229.683594 120.308594 " fill-opacity="1" fill-rule="nonzero"/></g></g><g clip-path="url(#05716006f6)"><path fill="#ffffff" d="M 98.707031 167.265625 L 182.289062 167.265625 L 182.289062 212.792969 L 98.707031 212.792969 Z M 98.707031 167.265625 " fill-opacity="1" fill-rule="nonzero"/></g><g clip-path="url(#e4b5a72de8)"><g clip-path="url(#86f8184cea)"><path fill="#ffffff" d="M 22.5 191.527344 L 787.5 191.527344 L 787.5 701.527344 L 22.5 701.527344 Z M 22.5 191.527344 " fill-opacity="1" fill-rule="nonzero"/></g></g><g clip-path="url(#037009e333)"><g clip-path="url(#55911e8aea)"><path fill="#023c82" d="M 60 229.027344 L 749.882812 229.027344 L 749.882812 664.027344 L 60 664.027344 Z M 60 229.027344 " fill-opacity="1" fill-rule="nonzero"/></g></g><g clip-path="url(#983196f46e)"><g clip-path="url(#a4d12f5cd8)"><path fill="#ffffff" d="M 632.949219 256.777344 L 715.683594 256.777344 L 715.683594 283.722656 L 632.949219 283.722656 Z M 632.949219 256.777344 " fill-opacity="1" fill-rule="nonzero"/></g></g><g clip-path="url(#dacfd263cc)"><g clip-path="url(#346db6d6ab)"><path fill="#023c82" d="M -129.910156 351.371094 L 878.15625 351.371094 L 878.15625 541.683594 L -129.910156 541.683594 Z M -129.910156 351.371094 " fill-opacity="1" fill-rule="nonzero"/></g></g><g clip-path="url(#c8d3bf64bd)"><path fill="#ffffff" d="M 335.777344 472.398438 C 331.480469 472.398438 327.179688 470.761719 323.898438 467.472656 L 266.191406 409.765625 C 264.878906 408.453125 264.878906 406.320312 266.191406 405.003906 L 285.1875 386.003906 C 286.503906 384.691406 288.632812 384.691406 289.953125 386.003906 L 335.777344 431.828125 L 456.5 311.105469 C 457.816406 309.792969 459.945312 309.792969 461.265625 311.105469 L 480.261719 330.105469 C 481.578125 331.417969 481.578125 333.550781 480.261719 334.867188 L 347.660156 467.472656 C 344.378906 470.753906 340.082031 472.398438 335.777344 472.398438 Z M 335.777344 472.398438 " fill-opacity="1" fill-rule="nonzero"/></g><g clip-path="url(#59b5d0699e)"><path fill="#ffffff" d="M 439.332031 389.492188 C 444.175781 401.964844 446.84375 415.515625 446.84375 429.679688 C 446.84375 491.078125 396.894531 541.027344 335.496094 541.027344 C 274.097656 541.027344 224.148438 491.078125 224.148438 429.679688 C 224.148438 368.285156 274.097656 318.332031 335.496094 318.332031 C 363.335938 318.332031 388.824219 328.605469 408.367188 345.554688 L 430.59375 323.328125 C 404.40625 299.851562 370.9375 287.007812 335.496094 287.007812 C 297.386719 287.007812 261.558594 301.847656 234.609375 328.792969 C 207.664062 355.742188 192.824219 391.570312 192.824219 429.679688 C 192.824219 467.789062 207.664062 503.617188 234.609375 530.566406 C 261.554688 557.515625 297.386719 572.355469 335.496094 572.355469 C 373.605469 572.355469 409.433594 557.515625 436.382812 530.566406 C 463.328125 503.617188 478.167969 467.789062 478.167969 429.679688 C 478.167969 407.101562 472.960938 385.324219 463.109375 365.722656 Z M 439.332031 389.492188 " fill-opacity="1" fill-rule="nonzero"/></g><path fill="#ffffff" d="M 251.769531 438.507812 L 240.378906 438.507812 C 238.019531 438.507812 236.109375 436.59375 236.109375 434.238281 C 236.109375 431.875 238.023438 429.964844 240.378906 429.964844 L 251.769531 429.964844 C 254.128906 429.964844 256.039062 431.882812 256.039062 434.238281 C 256.039062 436.597656 254.128906 438.507812 251.769531 438.507812 Z M 251.769531 438.507812 " fill-opacity="1" fill-rule="nonzero"/><path fill="#ffffff" d="M 339.765625 527.640625 C 337.40625 527.640625 335.496094 525.730469 335.496094 523.371094 L 335.496094 511.980469 C 335.496094 509.621094 337.40625 507.710938 339.765625 507.710938 C 342.128906 507.710938 344.039062 509.621094 344.039062 511.980469 L 344.039062 523.371094 C 344.039062 525.730469 342.128906 527.640625 339.765625 527.640625 Z M 339.765625 527.640625 " fill-opacity="1" fill-rule="nonzero"/><path fill="#ffffff" d="M 339.765625 349.375 C 337.40625 349.375 335.496094 347.460938 335.496094 345.105469 L 335.496094 333.714844 C 335.496094 331.351562 337.40625 329.441406 339.765625 329.441406 C 342.128906 329.441406 344.039062 331.355469 344.039062 333.714844 L 344.039062 345.105469 C 344.039062 347.460938 342.128906 349.375 339.765625 349.375 Z M 339.765625 349.375 " fill-opacity="1" fill-rule="nonzero"/><path fill="#ffffff" d="M 430.894531 438.792969 L 419.503906 438.792969 C 417.144531 438.792969 415.234375 436.878906 415.234375 434.523438 C 415.234375 432.167969 417.144531 430.253906 419.503906 430.253906 L 430.894531 430.253906 C 433.253906 430.253906 435.164062 432.167969 435.164062 434.523438 C 435.164062 436.878906 433.253906 438.792969 430.894531 438.792969 Z M 430.894531 438.792969 " fill-opacity="1" fill-rule="nonzero"/><g fill="#ffffff" fill-opacity="1"><g transform="translate(15.879305, 486.278667)"><g><path d="M 61.296875 -94.703125 C 70.421875 -94.703125 77.617188 -92.648438 82.890625 -88.546875 C 88.160156 -84.441406 90.796875 -78.410156 90.796875 -70.453125 C 90.796875 -64.171875 89.414062 -57.722656 86.65625 -51.109375 C 83.894531 -44.492188 79.414062 -39.507812 73.21875 -36.15625 C 67.019531 -32.8125 60.070312 -31.222656 52.375 -31.390625 L 37.671875 -31.390625 L 32.65625 0 L 8.03125 0 L 22.984375 -94.703125 Z M 44.453125 -74.859375 L 40.8125 -51.25 L 46.84375 -51.25 C 53.789062 -51.25 58.5 -52.503906 60.96875 -55.015625 C 63.445312 -57.523438 64.6875 -61.289062 64.6875 -66.3125 C 64.6875 -69.40625 63.660156 -71.601562 61.609375 -72.90625 C 59.554688 -74.207031 56.269531 -74.859375 51.75 -74.859375 Z M 44.453125 -74.859375 "/></g></g></g><g fill="#ffffff" fill-opacity="1"><g transform="translate(96.130927, 486.278667)"><g><path d="M 60.40625 -94.703125 C 68.945312 -94.703125 75.789062 -92.691406 80.9375 -88.671875 C 86.09375 -84.648438 88.671875 -78.875 88.671875 -71.34375 C 88.671875 -63.300781 86.28125 -56.203125 81.5 -50.046875 C 76.726562 -43.890625 70.617188 -40.144531 63.171875 -38.8125 L 86.78125 0 L 56.140625 0 L 38.6875 -36.421875 L 38.4375 -36.421875 L 32.65625 0 L 8.03125 0 L 22.984375 -94.703125 Z M 40.9375 -52.25 L 44.328125 -52.25 C 50.109375 -52.25 54.585938 -53.460938 57.765625 -55.890625 C 60.953125 -58.316406 62.546875 -61.875 62.546875 -66.5625 C 62.546875 -72.757812 57.4375 -75.859375 47.21875 -75.859375 L 44.71875 -75.859375 Z M 40.9375 -52.25 "/></g></g></g><g fill="#ffffff" fill-opacity="1"><g transform="translate(178.769922, 486.278667)"><g/></g></g><g fill="#ffffff" fill-opacity="1"><g transform="translate(477.209336, 484.778667)"><g><path d="M 81.015625 -94.703125 L 77.75 -73.84375 L 57.390625 -73.84375 L 45.71875 0 L 21.09375 0 L 32.78125 -73.84375 L 12.4375 -73.84375 L 15.703125 -94.703125 Z M 81.015625 -94.703125 "/></g></g></g><g fill="#ffffff" fill-opacity="1"><g transform="translate(541.385464, 484.778667)"><g><path d="M 76.859375 -94.703125 L 73.59375 -73.84375 L 44.328125 -73.84375 L 41.828125 -58.03125 L 69.578125 -58.03125 L 66.3125 -37.171875 L 38.5625 -37.171875 L 35.921875 -20.84375 L 65.1875 -20.84375 L 61.921875 0 L 8.03125 0 L 22.984375 -94.703125 Z M 76.859375 -94.703125 "/></g></g></g><g fill="#ffffff" fill-opacity="1"><g transform="translate(607.696626, 484.778667)"><g><path d="M 85.65625 -62.921875 C 83.726562 -66.273438 80.984375 -68.847656 77.421875 -70.640625 C 73.867188 -72.441406 69.957031 -73.34375 65.6875 -73.34375 C 57.726562 -73.34375 50.773438 -70.285156 44.828125 -64.171875 C 38.890625 -58.066406 35.921875 -50.828125 35.921875 -42.453125 C 35.921875 -36.171875 37.929688 -31.082031 41.953125 -27.1875 C 45.972656 -23.289062 51.289062 -21.34375 57.90625 -21.34375 C 61.914062 -21.34375 65.953125 -22.242188 70.015625 -24.046875 C 74.078125 -25.847656 77.65625 -28.296875 80.75 -31.390625 L 75.984375 -1.890625 C 74.222656 -1.296875 71.144531 -0.414062 66.75 0.75 C 62.351562 1.925781 57.976562 2.515625 53.625 2.515625 C 46.007812 2.515625 38.894531 0.863281 32.28125 -2.4375 C 25.664062 -5.75 20.328125 -10.398438 16.265625 -16.390625 C 12.203125 -22.378906 10.128906 -29.347656 10.046875 -37.296875 C 10.046875 -48.015625 12.679688 -57.914062 17.953125 -67 C 23.234375 -76.082031 30.539062 -83.382812 39.875 -88.90625 C 49.207031 -94.4375 58.816406 -97.203125 68.703125 -97.203125 C 75.734375 -97.203125 82.972656 -95.613281 90.421875 -92.4375 Z M 85.65625 -62.921875 "/></g></g></g><g fill="#ffffff" fill-opacity="1"><g transform="translate(687.822659, 484.778667)"><g><path d="M 47.59375 -94.703125 L 41.828125 -58.15625 L 77.359375 -58.15625 L 83.140625 -94.703125 L 107.765625 -94.703125 L 92.8125 0 L 68.203125 0 L 74.34375 -38.8125 L 38.8125 -38.8125 L 32.65625 0 L 8.03125 0 L 22.984375 -94.703125 Z M 47.59375 -94.703125 "/></g></g></g><g fill="#ffffff" fill-opacity="1"><g transform="translate(785.916355, 484.778667)"><g/></g></g></svg>